<?xml version="1.0" encoding="UTF-8"?>
<svg width="128px" height="128px" viewBox="0 0 128 128" version="1.1" xmlns="http://www.w3.org/2000/svg" xmlns:xlink="http://www.w3.org/1999/xlink">
    <!-- Generator: Sketch 52.6 (67491) - http://www.bohemiancoding.com/sketch -->
    <title>logo_padding_purple</title>
    <desc>Created with Sketch.</desc>
    <defs>
        <linearGradient x1="49.3245938%" y1="1.38127123%" x2="49.7717814%" y2="53.3080602%" id="linearGradient-1">
            <stop stop-color="#443BB0" offset="0%"></stop>
            <stop stop-color="#5F56C6" offset="27.82%"></stop>
            <stop stop-color="#857FE5" offset="100%"></stop>
        </linearGradient>
        <linearGradient x1="49.3252119%" y1="1.16495858%" x2="50.0788677%" y2="53.099561%" id="linearGradient-2">
            <stop stop-color="#443BB0" offset="0%"></stop>
            <stop stop-color="#5F56C6" offset="27.82%"></stop>
            <stop stop-color="#857FE5" offset="100%"></stop>
        </linearGradient>
        <linearGradient x1="-6.34849004%" y1="50.1334323%" x2="100.056694%" y2="50.1334323%" id="linearGradient-3">
            <stop stop-color="#443BB0" offset="0%"></stop>
            <stop stop-color="#857FE5" offset="44.11%"></stop>
            <stop stop-color="#857FE5" offset="60.94%"></stop>
            <stop stop-color="#443BB0" offset="100%"></stop>
        </linearGradient>
    </defs>
    <g id="使用的图标" stroke="none" stroke-width="1" fill="none" fill-rule="evenodd">
        <g id="logo_padding_purple">
            <path d="M10.4,21.3 L11.5,21.4 C12.3,21.5 13.1,21.7 13.8,22.1 L27,29.5 L27,66.4 C27,70.1 28.9,73.5 32.1,75.5 L57.3,90.9 L38.1,102 C34.5,104.1 30.1,104 26.6,101.9 L6.7,89.8 C3.6,87.9 1.6,84.4 1.6,80.8 L1.6,30.5 C1.7,25.5 5.5,21.5 10.4,21.3 Z" id="Rectangle" fill="url(#linearGradient-1)"></path>
            <path d="M110.7,95.9 L93,84.2 C90,82.2 86.3,81.8 83.1,83 L95.4,75.9 C98.8,73.9 101,70.2 100.9,66.2 L100.8,29.5720029 L114.1,22.2357503 C114.9,21.8357503 116.1,21.5469343 117,21.5469343 L117.5,21.5469343 C122.3,21.7 126.2,25.8 126.2,30.7 L126.2,80.6 C126.2,84.6 124.1,88.3 120.6,90.3 L110.7,95.9 Z M104.6,99.4 L95.5,104.7 L82.9,96.4 L86.2,94.5 C88.2,93.4 90.6,93.4 92.5,94.6 L99.3,98.8 C101,99.9 102.9,100 104.6,99.4 Z M75.9,116.1 L69.5,119.8 C66.1,121.8 61.8,121.8 58.4,119.8 L38.8,108.7 L48.1,103.3 L67.9,115.4 C70.3,116.9 73.3,117.2 75.9,116.1 Z M54.7,99.5 L63.5,94.4 L77.1,102.3 L73.6,104.4 C71.7,105.5 69.3,105.5 67.4,104.4 L59.7,100 C58.2,99.1 56.4,98.9 54.7,99.5 Z" id="Combined-Shape" fill="url(#linearGradient-2)" fill-rule="nonzero"></path>
            <path d="M5.4,23 C7.7,21.5 10.7,21.1 13.3,22 L13.4,22 L58.7,47.2 C62.1,49.1 66.2,49.1 69.5,47.2 L113.5,22.8 L114.5,22.4 C117.1,21.3 120,21.6 122.3,23.2 L101.1,8.3 C97.6,5.8 93,5.6 89.3,7.7 L69.4,18.7 C66,20.6 62,20.6 58.6,18.7 L39.1,7.9 C35.5,5.9 31,6.1 27.6,8.4 L5.4,23 Z" id="Path-9" fill="url(#linearGradient-3)"></path>
        </g>
    </g>
</svg>